<?xml version="1.0" encoding="UTF-8" standalone="no"?>
<svg xmlns:xlink="http://www.w3.org/1999/xlink" height="57.45px" width="156.45px" xmlns="http://www.w3.org/2000/svg">
  <g transform="matrix(1, 0, 0, 1, -0.35, -5.2)">
    <path d="M143.35 10.25 L144.05 10.5 Q150.5 12.65 154.85 12.65 L156.8 12.65 156.8 62.65 0.35 62.65 0.35 7.75 1.15 7.4 Q4.8 5.95 8.4 5.5 L10.7 5.35 12.95 5.45 Q16.05 6.1 23.15 8.95 L24.85 9.65 Q32.95 12.65 38.1 12.65 L39.05 12.65 40.0 12.65 46.25 11.8 50.55 10.55 52.5 9.9 54.95 8.95 Q60.25 6.85 63.35 5.95 L66.6 5.3 67.85 5.35 72.35 5.95 Q75.4 6.85 80.7 8.95 89.95 12.65 95.65 12.65 L96.6 12.65 97.5 12.65 Q102.4 12.65 109.9 9.95 L112.45 8.95 Q121.65 5.3 124.1 5.3 L126.2 5.2 128.25 5.3 Q130.7 5.3 139.9 8.95 L143.35 10.25" fill="url(#gradient0)" fill-rule="evenodd" stroke="none"/>
  </g>
  <defs>
    <linearGradient gradientTransform="matrix(0.0955, 0.0, 0.0, 0.0351, 78.55, 33.9)" gradientUnits="userSpaceOnUse" id="gradient0" spreadMethod="pad" x1="-819.2" x2="819.2">
      <stop offset="0.0" stop-color="#f1f1f1" stop-opacity="0.47058824"/>
      <stop offset="1.0" stop-color="#ffffff" stop-opacity="0.7764706"/>
    </linearGradient>
  </defs>
</svg>
