<?xml version="1.0" encoding="UTF-8" standalone="no"?>
<svg xmlns:xlink="http://www.w3.org/1999/xlink" height="94.6px" width="34.85px" xmlns="http://www.w3.org/2000/svg">
  <g transform="matrix(1, 0, 0, 1, 16.85, 86.55)">
    <path d="M-15.85 -74.3 L-15.85 -4.9 -15.65 -1.25 Q-15.2 2.1 -13.8 2.1 0.3 12.05 14.95 2.1 L15.9 1.6 Q16.85 0.45 17.0 -4.9 L17.0 -74.3 Q17.0 -81.35 16.2 -80.5 13.75 -88.5 10.8 -80.35 7.85 -72.25 4.35 -80.8 0.8 -88.45 -2.75 -81.35 -5.0 -76.8 -8.35 -81.9 -11.9 -87.25 -15.75 -82.75 L-15.85 -74.3" fill="#ffffff" fill-opacity="0.36078432" fill-rule="evenodd" stroke="none">
      <animate attributeName="fill" dur="2s" repeatCount="indefinite" values="#ffffff;#ffffff"/>
      <animate attributeName="fill-opacity" dur="2s" repeatCount="indefinite" values="0.36078432;0.36078432"/>
      <animate attributeName="d" dur="2s" repeatCount="indefinite" values="M-15.85 -74.3 L-15.85 -4.9 -15.65 -1.25 Q-15.2 2.1 -13.8 2.1 0.3 12.05 14.95 2.1 L15.9 1.6 Q16.85 0.45 17.0 -4.9 L17.0 -74.3 Q17.0 -81.35 16.2 -80.5 13.75 -88.5 10.8 -80.35 7.85 -72.25 4.35 -80.8 0.8 -88.45 -2.75 -81.35 -5.0 -76.8 -8.35 -81.9 -11.9 -87.25 -15.75 -82.75 L-15.85 -74.3;M-15.85 -74.3 L-15.85 -4.9 -15.65 -1.25 Q-15.2 2.1 -13.8 2.1 0.3 12.05 14.95 2.1 L15.9 1.6 Q16.85 0.45 17.0 -4.9 L17.0 -74.3 Q16.95 -78.5 16.9 -82.7 12.85 -76.6 10.75 -82.3 6.8 -89.5 4.35 -80.8 -0.2 -77.15 -2.75 -81.35 -5.15 -88.95 -8.35 -81.9 -11.25 -78.6 -15.75 -82.75 L-15.85 -74.3"/>
    </path>
    <path d="M-15.85 -74.3 L-15.75 -82.75 Q-11.9 -87.25 -8.35 -81.9 -5.0 -76.8 -2.75 -81.35 0.8 -88.45 4.35 -80.8 7.85 -72.25 10.8 -80.35 13.75 -88.5 16.2 -80.5 17.0 -81.35 17.0 -74.3 L17.0 -4.9 Q16.85 0.45 15.9 1.6 L14.95 2.1 Q0.3 12.05 -13.8 2.1 -15.2 2.1 -15.65 -1.25 L-15.85 -4.9 -15.85 -74.3 -15.75 -82.75 Q-11.9 -87.25 -8.35 -81.9 -5.0 -76.8 -2.75 -81.35 0.8 -88.45 4.35 -80.8 7.85 -72.25 10.8 -80.35 13.75 -88.5 16.2 -80.5 17.0 -81.35 17.0 -74.3 L17.0 -4.9 Q16.85 0.45 15.9 1.6 L14.95 2.1 Q0.3 12.05 -13.8 2.1 -15.2 2.1 -15.65 -1.25 L-15.85 -4.9 -15.85 -74.3" fill="none" stroke="#ffffff" stroke-linecap="round" stroke-linejoin="round" stroke-opacity="0.32941177" stroke-width="2.0">
      <animate attributeName="stroke" dur="2s" repeatCount="indefinite" values="#ffffff;#ffffff"/>
      <animate attributeName="stroke-width" dur="2s" repeatCount="indefinite" values="2.0;2.0"/>
      <animate attributeName="fill-opacity" dur="2s" repeatCount="indefinite" values="0.32941177;0.3254902"/>
      <animate attributeName="d" dur="2s" repeatCount="indefinite" values="M-15.85 -74.3 L-15.75 -82.75 Q-11.9 -87.25 -8.35 -81.9 -5.0 -76.8 -2.75 -81.35 0.8 -88.45 4.35 -80.8 7.85 -72.25 10.8 -80.35 13.75 -88.5 16.2 -80.5 17.0 -81.35 17.0 -74.3 L17.0 -4.9 Q16.85 0.45 15.9 1.6 L14.95 2.1 Q0.3 12.05 -13.8 2.1 -15.2 2.1 -15.65 -1.25 L-15.85 -4.9 -15.85 -74.3 -15.75 -82.75 Q-11.9 -87.25 -8.35 -81.9 -5.0 -76.8 -2.75 -81.35 0.8 -88.45 4.35 -80.8 7.85 -72.25 10.8 -80.35 13.75 -88.5 16.2 -80.5 17.0 -81.35 17.0 -74.3 L17.0 -4.9 Q16.85 0.45 15.9 1.6 L14.95 2.1 Q0.3 12.05 -13.8 2.1 -15.2 2.1 -15.65 -1.25 L-15.85 -4.9 -15.85 -74.3;M-15.85 -74.3 L-15.75 -82.75 Q-11.25 -78.6 -8.35 -81.9 -5.15 -88.95 -2.75 -81.35 -0.2 -77.15 4.35 -80.8 6.8 -89.5 10.75 -82.3 12.85 -76.6 16.9 -82.7 16.95 -78.5 17.0 -74.3 L17.0 -4.9 Q16.85 0.45 15.9 1.6 L14.95 2.1 Q0.3 12.05 -13.8 2.1 -15.2 2.1 -15.65 -1.25 L-15.85 -4.9 -15.85 -74.3 -15.75 -82.75 Q-11.25 -78.6 -8.35 -81.9 -5.15 -88.95 -2.75 -81.35 -0.2 -77.15 4.35 -80.8 6.8 -89.5 10.75 -82.3 12.85 -76.6 16.9 -82.7 16.95 -78.5 17.0 -74.3 L17.0 -4.9 Q16.85 0.45 15.9 1.6 L14.95 2.1 Q0.3 12.05 -13.8 2.1 -15.2 2.1 -15.65 -1.25 L-15.85 -4.9 -15.85 -74.3"/>
    </path>
  </g>
</svg>
