<?xml version="1.0" encoding="UTF-8" standalone="no"?>
<svg xmlns:xlink="http://www.w3.org/1999/xlink" height="94.6px" width="34.85px" xmlns="http://www.w3.org/2000/svg">
  <g transform="matrix(1, 0, 0, 1, 16.85, 86.55)">
    <path d="M10.75 -82.3 Q12.85 -76.6 16.9 -82.7 L17.0 -74.3 17.0 -4.9 17.0 -3.5 Q16.85 0.45 15.9 1.6 L15.15 2.1 14.95 2.1 Q0.3 12.05 -13.8 2.1 -15.2 2.1 -15.65 -1.25 L-15.85 -4.9 -15.85 -74.3 -15.75 -82.75 Q-11.25 -78.6 -8.35 -81.9 -5.15 -88.95 -2.75 -81.35 -0.2 -77.15 4.35 -80.8 6.8 -89.5 10.75 -82.3" fill="#ffffff" fill-opacity="0.36078432" fill-rule="evenodd" stroke="none"/>
    <path d="M10.75 -82.3 Q6.8 -89.5 4.35 -80.8 -0.2 -77.15 -2.75 -81.35 -5.15 -88.95 -8.35 -81.9 -11.25 -78.6 -15.75 -82.75 L-15.85 -74.3 -15.85 -4.9 -15.65 -1.25 Q-15.2 2.1 -13.8 2.1 0.3 12.05 14.95 2.1 L15.15 2.1 15.9 1.6 Q16.85 0.45 17.0 -3.5 L17.0 -4.9 17.0 -74.3 16.9 -82.7 Q12.85 -76.6 10.75 -82.3" fill="none" stroke="#ffffff" stroke-linecap="round" stroke-linejoin="round" stroke-opacity="0.3254902" stroke-width="2.0"/>
  </g>
</svg>
