<?xml version="1.0" encoding="UTF-8" standalone="no"?>
<svg xmlns:xlink="http://www.w3.org/1999/xlink" height="57.5px" width="156.45px" xmlns="http://www.w3.org/2000/svg">
  <g transform="matrix(1.0, 0.0, 0.0, 1.0, -0.35, -5.15)">
    <path d="M0.35 7.75 L0.35 7.75 0.35 59.05 0.35 62.65 151.45 62.65 156.8 62.65 156.8 12.65 155.25 12.65 154.85 12.65 154.4 12.65 153.4 12.6 Q149.45 12.3 144.05 10.5 L143.35 10.25 142.75 10.05 141.95 9.75 139.9 8.95 138.45 8.35 Q130.5 5.3 128.25 5.3 L126.85 5.25 126.2 5.2 124.8 5.3 124.1 5.3 122.8 5.45 Q119.7 6.05 112.45 8.95 L111.2 9.5 109.9 9.95 108.8 10.35 Q102.05 12.65 97.5 12.65 L96.6 12.65 96.5 12.65 95.65 12.65 95.55 12.65 94.65 12.6 Q89.15 12.35 80.7 8.95 L79.9 8.65 Q75.15 6.8 72.35 5.95 L71.5 5.8 67.85 5.35 67.0 5.3 66.6 5.3 65.8 5.35 63.35 5.95 62.7 6.15 Q59.7 7.05 54.95 8.95 L54.3 9.2 52.5 9.9 51.85 10.1 50.55 10.55 49.95 10.75 46.25 11.8 45.65 11.9 40.0 12.65 39.45 12.65 39.05 12.65 38.55 12.65 38.1 12.65 37.6 12.65 Q32.55 12.5 24.85 9.65 L24.45 9.45 23.15 8.95 22.8 8.85 Q15.95 6.1 12.95 5.45 L12.85 5.45 10.7 5.35 10.6 5.35 8.4 5.5 8.3 5.5 Q4.75 6.0 1.15 7.4 L0.35 7.75" fill="url(#gradient0)" fill-rule="evenodd" stroke="none">
      <animate attributeName="d" dur="2s" repeatCount="indefinite" values="M0.35 7.75 L0.35 7.75 0.35 59.05 0.35 62.65 151.45 62.65 156.8 62.65 156.8 12.65 155.25 12.65 154.85 12.65 154.4 12.65 153.4 12.6 Q149.45 12.3 144.05 10.5 L143.35 10.25 142.75 10.05 141.95 9.75 139.9 8.95 138.45 8.35 Q130.5 5.3 128.25 5.3 L126.85 5.25 126.2 5.2 124.8 5.3 124.1 5.3 122.8 5.45 Q119.7 6.05 112.45 8.95 L111.2 9.5 109.9 9.95 108.8 10.35 Q102.05 12.65 97.5 12.65 L96.6 12.65 96.5 12.65 95.65 12.65 95.55 12.65 94.65 12.6 Q89.15 12.35 80.7 8.95 L79.9 8.65 Q75.15 6.8 72.35 5.95 L71.5 5.8 67.85 5.35 67.0 5.3 66.6 5.3 65.8 5.35 63.35 5.95 62.7 6.15 Q59.7 7.05 54.95 8.95 L54.3 9.2 52.5 9.9 51.85 10.1 50.55 10.55 49.95 10.75 46.25 11.8 45.65 11.9 40.0 12.65 39.45 12.65 39.05 12.65 38.55 12.65 38.1 12.65 37.6 12.65 Q32.55 12.5 24.85 9.65 L24.45 9.45 23.15 8.95 22.8 8.85 Q15.95 6.1 12.95 5.45 L12.85 5.45 10.7 5.35 10.6 5.35 8.4 5.5 8.3 5.5 Q4.75 6.0 1.15 7.4 L0.35 7.75;M0.35 10.4 L0.35 10.85 0.35 62.65 4.05 62.65 156.8 62.65 156.8 57.35 156.8 6.75 156.8 5.15 156.4 5.15 155.85 5.15 154.85 5.15 Q150.95 5.15 145.35 6.9 L144.7 7.1 144.05 7.3 143.35 7.55 141.4 8.3 139.9 8.85 Q132.85 11.65 129.8 12.3 L128.25 12.5 127.65 12.5 126.2 12.6 125.5 12.55 124.1 12.5 Q121.8 12.5 113.6 9.3 L112.45 8.85 111.15 8.3 109.9 7.85 Q103.2 5.45 98.6 5.2 L97.7 5.15 97.5 5.15 96.8 5.15 96.6 5.15 95.65 5.15 Q90.2 5.15 81.5 8.55 L80.7 8.85 Q76.95 10.25 73.2 11.6 L72.35 11.85 68.65 12.4 67.85 12.45 67.45 12.45 66.6 12.5 64.15 12.05 63.35 11.85 Q59.45 10.45 55.55 9.05 L54.95 8.85 53.15 8.15 52.5 7.9 51.25 7.45 50.55 7.25 46.85 6.1 46.25 6.0 40.6 5.15 40.0 5.15 39.65 5.15 39.05 5.15 38.65 5.15 38.1 5.15 Q33.05 5.15 25.25 8.05 L24.85 8.15 23.55 8.65 23.15 8.85 Q16.25 11.6 13.15 12.35 L12.95 12.35 10.9 12.45 10.7 12.45 8.6 12.3 8.4 12.3 Q4.8 11.85 1.15 10.4 L0.35 10.4"/>
    </path>
    <path d="M0.35 7.75 L1.15 7.4 Q4.75 6.0 8.3 5.5 L8.4 5.5 10.6 5.35 10.7 5.35 12.85 5.45 12.95 5.45 Q15.95 6.1 22.8 8.85 L23.15 8.95 24.45 9.45 24.85 9.65 Q32.55 12.5 37.6 12.65 L38.1 12.65 38.55 12.65 39.05 12.65 39.45 12.65 40.0 12.65 45.65 11.9 46.25 11.8 49.95 10.75 50.55 10.55 51.85 10.1 52.5 9.9 54.3 9.2 54.95 8.95 Q59.7 7.05 62.7 6.15 L63.35 5.95 65.8 5.35 66.6 5.3 67.0 5.3 67.85 5.35 71.5 5.8 72.35 5.95 Q75.15 6.8 79.9 8.65 L80.7 8.95 Q89.15 12.35 94.65 12.6 L95.55 12.65 95.65 12.65 96.5 12.65 96.6 12.65 97.5 12.65 Q102.05 12.65 108.8 10.35 L109.9 9.95 111.2 9.5 112.45 8.95 Q119.7 6.05 122.8 5.45 L124.1 5.3 124.8 5.3 126.2 5.2 126.85 5.25 128.25 5.3 Q130.5 5.3 138.45 8.35 L139.9 8.95 141.95 9.75 142.75 10.05 143.35 10.25 144.05 10.5 Q149.45 12.3 153.4 12.6 L154.4 12.65 154.85 12.65 155.25 12.65 156.8 12.65 156.8 62.65 151.45 62.65 0.35 62.65 0.35 59.05 0.35 7.75 0.35 7.75" fill="none" stroke="#000000" stroke-linecap="round" stroke-linejoin="round" stroke-opacity="0.0" stroke-width="1.0">
      <animate attributeName="stroke" dur="2s" repeatCount="indefinite" values="#000000;#000001"/>
      <animate attributeName="stroke-width" dur="2s" repeatCount="indefinite" values="0.0;0.0"/>
      <animate attributeName="fill-opacity" dur="2s" repeatCount="indefinite" values="0.0;0.0"/>
      <animate attributeName="d" dur="2s" repeatCount="indefinite" values="M0.35 7.75 L1.15 7.4 Q4.75 6.0 8.3 5.5 L8.4 5.5 10.6 5.35 10.7 5.35 12.85 5.45 12.95 5.45 Q15.95 6.1 22.8 8.85 L23.15 8.95 24.45 9.45 24.85 9.65 Q32.55 12.5 37.6 12.65 L38.1 12.65 38.55 12.65 39.05 12.65 39.45 12.65 40.0 12.65 45.65 11.9 46.25 11.8 49.95 10.75 50.55 10.55 51.85 10.1 52.5 9.9 54.3 9.2 54.95 8.95 Q59.7 7.05 62.7 6.15 L63.35 5.95 65.8 5.35 66.6 5.3 67.0 5.3 67.85 5.35 71.5 5.8 72.35 5.95 Q75.15 6.8 79.9 8.65 L80.7 8.95 Q89.15 12.35 94.65 12.6 L95.55 12.65 95.65 12.65 96.5 12.65 96.6 12.65 97.5 12.65 Q102.05 12.65 108.8 10.35 L109.9 9.95 111.2 9.5 112.45 8.95 Q119.7 6.05 122.8 5.45 L124.1 5.3 124.8 5.3 126.2 5.2 126.85 5.25 128.25 5.3 Q130.5 5.3 138.45 8.35 L139.9 8.95 141.95 9.75 142.75 10.05 143.35 10.25 144.05 10.5 Q149.45 12.3 153.4 12.6 L154.4 12.65 154.85 12.65 155.25 12.65 156.8 12.65 156.8 62.65 151.45 62.65 0.35 62.65 0.35 59.05 0.35 7.75 0.35 7.75;M0.35 10.4 L1.15 10.4 Q4.8 11.85 8.4 12.3 L8.6 12.3 10.7 12.45 10.9 12.45 12.95 12.35 13.15 12.35 Q16.25 11.6 23.15 8.85 L23.55 8.65 24.85 8.15 25.25 8.05 Q33.05 5.15 38.1 5.15 L38.65 5.15 39.05 5.15 39.65 5.15 40.0 5.15 40.6 5.15 46.25 6.0 46.85 6.1 50.55 7.25 51.25 7.45 52.5 7.9 53.15 8.15 54.95 8.85 55.55 9.05 Q59.45 10.45 63.35 11.85 L64.15 12.05 66.6 12.5 67.45 12.45 67.85 12.45 68.65 12.4 72.35 11.85 73.2 11.6 Q76.95 10.25 80.7 8.85 L81.5 8.55 Q90.2 5.15 95.65 5.15 L96.6 5.15 96.8 5.15 97.5 5.15 97.7 5.15 98.6 5.2 Q103.2 5.45 109.9 7.85 L111.15 8.3 112.45 8.85 113.6 9.3 Q121.8 12.5 124.1 12.5 L125.5 12.55 126.2 12.6 127.65 12.5 128.25 12.5 129.8 12.3 Q132.85 11.65 139.9 8.85 L141.4 8.3 143.35 7.55 144.05 7.3 144.7 7.1 145.35 6.9 Q150.95 5.15 154.85 5.15 L155.85 5.15 156.4 5.15 156.8 5.15 156.8 6.75 156.8 57.35 156.8 62.65 4.05 62.65 0.35 62.65 0.35 10.85 0.35 10.4"/>
    </path>
  </g>
  <defs>
    <linearGradient gradientTransform="matrix(0.0955, 0.0, 0.0, 0.0351, 78.55, 33.9)" gradientUnits="userSpaceOnUse" id="gradient0" spreadMethod="pad" x1="-819.2" x2="819.2">
      <animateTransform additive="replace" attributeName="gradientTransform" dur="2s" from="1" repeatCount="indefinite" to="1" type="scale"/>
      <animateTransform additive="sum" attributeName="gradientTransform" dur="2s" from="78.55 33.9" repeatCount="indefinite" to="78.55 33.9" type="translate"/>
      <animateTransform additive="sum" attributeName="gradientTransform" dur="2s" from="0.0" repeatCount="indefinite" to="0.0" type="rotate"/>
      <animateTransform additive="sum" attributeName="gradientTransform" dur="2s" from="0.0955 0.0351" repeatCount="indefinite" to="0.0955 0.0351" type="scale"/>
      <animateTransform additive="sum" attributeName="gradientTransform" dur="2s" from="0.0" repeatCount="indefinite" to="0.0" type="skewX"/>
      <stop offset="0.0" stop-color="#02cbfd" stop-opacity="0.47058824">
        <animate attributeName="offset" dur="2s" repeatCount="indefinite" values="0.0;0.0"/>
        <animate attributeName="stop-color" dur="2s" repeatCount="indefinite" values="#02cbfd;#02cbfd"/>
        <animate attributeName="stop-opacity" dur="2s" repeatCount="indefinite" values="0.47058824;0.47058824"/>
      </stop>
      <stop offset="1.0" stop-color="#018cfd" stop-opacity="0.76862746">
        <animate attributeName="offset" dur="2s" repeatCount="indefinite" values="1.0;1.0"/>
        <animate attributeName="stop-color" dur="2s" repeatCount="indefinite" values="#018cfd;#018cfd"/>
        <animate attributeName="stop-opacity" dur="2s" repeatCount="indefinite" values="0.76862746;0.76862746"/>
      </stop>
    </linearGradient>
  </defs>
</svg>
